<?xml version="1.0" encoding="UTF-8" standalone="no"?>
<!DOCTYPE svg PUBLIC "-//W3C//DTD SVG 1.1//EN" "http://www.w3.org/Graphics/SVG/1.1/DTD/svg11.dtd">
<svg width="100%" height="100%" viewBox="0 0 1980 1986" version="1.1" xmlns="http://www.w3.org/2000/svg" xmlns:xlink="http://www.w3.org/1999/xlink" xml:space="preserve" xmlns:serif="http://www.serif.com/" style="fill-rule:evenodd;clip-rule:evenodd;stroke-linejoin:round;stroke-miterlimit:2;">
    <g transform="matrix(1,0,0,1,-2085.22,-2055.1)">
        <g transform="matrix(1,0,0,1,2077.22,2055.1)">
            <rect id="Artboard1" x="8" y="0" width="1980" height="1986" style="fill:none;"/>
            <g id="Artboard11" serif:id="Artboard1">
                <g transform="matrix(1.53038,0,0,1.53038,-530.376,-530.376)">
                    <g transform="matrix(43.0119,0,0,43.0119,-25144.3,-26625.7)">
                        <path d="M595.36,646.983L595.36,644.967C595.36,643.799 595.552,642.827 595.936,642.051C596.32,641.275 596.876,640.635 597.604,640.131C598.332,639.627 599.224,639.215 600.28,638.895L601.888,638.391C602.48,638.199 602.976,637.963 603.376,637.683C603.776,637.403 604.084,637.063 604.3,636.663C604.516,636.263 604.624,635.807 604.624,635.295L604.624,635.199C604.624,634.399 604.352,633.763 603.808,633.291C603.264,632.819 602.52,632.583 601.576,632.583C600.648,632.583 599.9,632.835 599.332,633.339C598.764,633.843 598.48,634.567 598.48,635.511L598.48,635.943L595.408,635.943L595.408,635.559C595.408,634.343 595.68,633.311 596.224,632.463C596.768,631.615 597.508,630.967 598.444,630.519C599.38,630.071 600.424,629.847 601.576,629.847C602.728,629.847 603.768,630.067 604.696,630.507C605.624,630.947 606.356,631.563 606.892,632.355C607.428,633.147 607.696,634.079 607.696,635.151L607.696,635.391C607.696,636.463 607.476,637.371 607.036,638.115C606.596,638.859 606,639.467 605.248,639.939C604.496,640.411 603.64,640.799 602.68,641.103L601.144,641.583C600.456,641.791 599.92,642.019 599.536,642.267C599.152,642.515 598.884,642.787 598.732,643.083C598.58,643.379 598.504,643.735 598.504,644.151L598.504,644.247L607.552,644.247L607.552,646.983L595.36,646.983Z" style="fill:white;fill-rule:nonzero;"/>
                        <g transform="matrix(1,0,0,1,0.0464988,7.39331)">
                            <path d="M613.96,647.319C612.648,647.319 611.516,647.087 610.564,646.623C609.612,646.159 608.88,645.503 608.368,644.655C607.856,643.807 607.6,642.823 607.6,641.703L607.6,641.463L610.72,641.463L610.72,641.679C610.72,642.479 610.988,643.163 611.524,643.731C612.06,644.299 612.856,644.583 613.912,644.583C614.968,644.583 615.78,644.299 616.348,643.731C616.916,643.163 617.2,642.423 617.2,641.511L617.2,641.271C617.2,640.375 616.916,639.663 616.348,639.135C615.78,638.607 615.072,638.343 614.224,638.343C613.76,638.343 613.376,638.407 613.072,638.535C612.768,638.663 612.52,638.823 612.328,639.015C612.136,639.207 611.976,639.399 611.848,639.591L608.128,639.591L608.128,630.183L619.6,630.183L619.6,632.967L611.2,632.967L611.2,637.071L611.632,637.071C611.792,636.863 612.008,636.663 612.28,636.471C612.552,636.279 612.904,636.119 613.336,635.991C613.768,635.863 614.28,635.799 614.872,635.799C615.864,635.799 616.768,636.007 617.584,636.423C618.4,636.839 619.052,637.451 619.54,638.259C620.028,639.067 620.272,640.063 620.272,641.247L620.272,641.535C620.272,642.719 620.02,643.743 619.516,644.607C619.012,645.471 618.288,646.139 617.344,646.611C616.4,647.083 615.272,647.319 613.96,647.319Z" style="fill:white;fill-rule:nonzero;"/>
                        </g>
                    </g>
                    <g transform="matrix(18.6361,0,0,18.6361,-8097.37,-24894.2)">
                        <path d="M459.395,1418.14L463.811,1401.34L482.478,1401.34L486.894,1418.14L483.63,1418.14L482.718,1414.44L463.571,1414.44L462.659,1418.14L459.395,1418.14ZM464.315,1411.52L481.974,1411.52L479.934,1403.33L466.355,1403.33L464.315,1411.52Z" style="fill:white;fill-rule:nonzero;"/>
                    </g>
                    <g transform="matrix(18.7551,0,0,18.2789,-7649.24,-25148.8)">
                        <path d="M461.954,1418.14L461.954,1401.34L482.675,1401.34C483.731,1401.34 484.663,1401.55 485.471,1401.98C486.279,1402.4 486.911,1403 487.367,1403.76C487.823,1404.53 488.051,1405.44 488.051,1406.5L488.051,1406.84C488.051,1407.88 487.815,1408.78 487.343,1409.56C486.871,1410.34 486.231,1410.93 485.423,1411.36C484.615,1411.78 483.699,1412 482.675,1412L478.931,1412L478.931,1418.14L461.954,1418.14ZM478.931,1409.12L482.363,1409.12C483.115,1409.12 483.723,1408.91 484.187,1408.49C484.651,1408.08 484.883,1407.51 484.883,1406.79L484.883,1406.55C484.883,1405.83 484.651,1405.26 484.187,1404.84C483.723,1404.43 483.115,1404.22 482.363,1404.22L478.931,1404.22L478.931,1409.12Z" style="fill:white;fill-rule:nonzero;"/>
                    </g>
                </g>
            </g>
        </g>
    </g>
</svg>
